<svg xmlns="http://www.w3.org/2000/svg" viewBox="0 0 24 24"><g fill="#101820" data-name="Layer 16"><path d="M22 21h-8a.51.51 0 0 1-.5-.43s-.29-1.64-2.88-4.75A11.81 11.81 0 0 0 7 12.75v7.75a.5.5 0 0 1-.5.5h-2a.5.5 0 0 1-.5-.5v-1.21a21.68 21.68 0 0 0-2.26-9.35A7 7 0 0 1 1 7a4.44 4.44 0 0 1 2.28-3.95.5.5 0 0 1 .61.14c.07.08 7 8.67 11.18 11.48a1.24 1.24 0 0 0 1.14.11 1.29 1.29 0 0 0 .8-.9.51.51 0 0 1 .49-.38c2.93 0 5.5 2.34 5.5 5a3.24 3.24 0 0 1-.65 2.35.47.47 0 0 1-.35.15Zm-7.62-1h7.35a3.33 3.33 0 0 0 .27-1.5c0-2.17-2.12-3.81-4.15-4a2.32 2.32 0 0 1-1.27 1.21 2.24 2.24 0 0 1-2.06-.22C10.61 12.9 4.76 5.84 3.39 4.16A3.49 3.49 0 0 0 2 7a6 6 0 0 0 .65 2.51A22.7 22.7 0 0 1 5 19.29V20h1v-8a.49.49 0 0 1 .19-.39.51.51 0 0 1 .43-.1c.09 0 2.19.58 4.76 3.67a15.44 15.44 0 0 1 3 4.82Z"/><path d="M18 19h-4.5a.5.5 0 0 1 0-1H18a.5.5 0 0 1 0 1zM6.5 12.5h-1a.5.5 0 0 1 0-1h1a.5.5 0 0 1 0 1z"/></g></svg>